<svg width="25" height="24" viewBox="0 0 25 24" fill="none" xmlns="http://www.w3.org/2000/svg">
<path fill-rule="evenodd" clip-rule="evenodd" d="M3.93521 11.5C3.93521 11.2239 4.15907 11 4.43521 11L20.4352 11C20.7114 11 20.9352 11.2239 20.9352 11.5C20.9352 11.7761 20.7114 12 20.4352 12L4.43521 12C4.15907 12 3.93521 11.7761 3.93521 11.5Z" fill="#ffffff"/>
<path fill-rule="evenodd" clip-rule="evenodd" d="M16.5817 7.64645C16.7769 7.45118 17.0935 7.45118 17.2888 7.64645L21.1423 11.5L17.2888 15.3536C17.0935 15.5488 16.7769 15.5488 16.5817 15.3536C16.3864 15.1583 16.3864 14.8417 16.5817 14.6464L19.7281 11.5L16.5817 8.35355C16.3864 8.15829 16.3864 7.84171 16.5817 7.64645Z" fill="#ffffff"/>
</svg>
