<svg width="115" height="145" viewBox="0 0 115 145" fill="none" xmlns="http://www.w3.org/2000/svg">
  <path d="M0.0546875 48.3203C0.0546875 33.8672 5.29557 22.2461 15.7773 13.457C26.2591 4.60286 40.1914 0.175781 57.5742 0.175781C74.5013 0.175781 87.9128 4.11458 97.8086 11.9922C107.77 19.8047 112.75 30.1562 112.75 43.0469C112.75 46.6927 112.132 50.4036 110.895 54.1797C109.658 57.8906 108.225 61.0807 106.598 63.75C105.035 66.4193 102.984 69.2188 100.445 72.1484C97.9714 75.0781 95.9857 77.2591 94.4883 78.6914C92.9909 80.1237 91.168 81.7839 89.0195 83.6719L55.9141 112.969V113.75H114.41V145H2.49609V117.461L59.1367 67.3633C63.9544 63.0664 67.4375 59.1276 69.5859 55.5469C71.7995 51.901 72.9062 48.1576 72.9062 44.3164C72.9062 40.4102 71.4089 37.1875 68.4141 34.6484C65.4193 32.0443 61.3177 30.7422 56.1094 30.7422C50.7057 30.7422 46.2786 32.3698 42.8281 35.625C39.4427 38.8802 37.75 43.0794 37.75 48.2227V49.1016H0.0546875V48.3203Z" fill="#F2F2F2" />
</svg>
